<svg width="520" height="319" viewBox="0 0 520 319" fill="none" xmlns="http://www.w3.org/2000/svg">
<mask id="path-1-inside-1_1131_114" fill="white">
<path fill-rule="evenodd" clip-rule="evenodd" d="M362.172 0C374.549 0 380.737 0 385.815 1.35799C399.634 5.05359 410.427 15.8471 414.123 29.6658C415.481 34.7437 415.481 41.1087 415.481 53.8388C415.481 65.5831 415.481 71.4553 416.634 76.1535C420.185 90.6191 431.48 101.914 445.945 105.464C450.643 106.618 456.342 106.618 467.74 106.618C479.138 106.618 484.837 106.618 489.536 107.771C504.001 111.322 515.296 122.616 518.847 137.082C520 141.78 520 147.479 520 158.877L520 283C520 302.882 503.882 319 484 319H260H36C16.1177 319 -9.1651e-06 302.882 0 283L0.000113859 36C0.000123024 16.1178 16.1179 0 36.0001 0H362.172Z"/>
</mask>
<path d="M520 283H517H520ZM0 283H3H0ZM0.000113859 36H3.00011H0.000113859ZM489.536 107.771L488.82 110.684L489.536 107.771ZM518.847 137.082L515.933 137.797L518.847 137.082ZM414.123 29.6658L417.021 28.8908L414.123 29.6658ZM385.815 1.35799L386.59 -1.54016L385.815 1.35799ZM416.634 76.1535L419.548 75.4383L416.634 76.1535ZM445.945 105.464L446.66 102.551L445.945 105.464ZM517 158.877L517 283H523L523 158.877H517ZM517 283C517 301.225 502.225 316 484 316V322C505.539 322 523 304.539 523 283H517ZM484 316H260V322H484V316ZM260 316H36V322H260V316ZM36 316C17.7746 316 2.99999 301.225 3 283H-3C-3.00001 304.539 14.4609 322 36 322V316ZM3 283L3.00011 36H-2.99989L-3 283H3ZM3.00011 36C3.00012 17.7746 17.7747 3 36.0001 3V-3C14.461 -3 -2.99988 14.4609 -2.99989 36H3.00011ZM36.0001 3H362.172V-3H36.0001V3ZM467.74 109.618C479.316 109.618 484.564 109.639 488.82 110.684L490.251 104.857C485.112 103.596 478.961 103.618 467.74 103.618V109.618ZM523 158.877C523 147.656 523.022 141.506 521.76 136.367L515.933 137.797C516.978 142.054 517 147.302 517 158.877H523ZM488.82 110.684C502.201 113.969 512.648 124.416 515.933 137.797L521.76 136.367C517.943 120.816 505.801 108.675 490.251 104.857L488.82 110.684ZM418.481 53.8388C418.481 41.3085 418.507 34.4469 417.021 28.8908L411.225 30.4409C412.455 35.0405 412.481 40.909 412.481 53.8388H418.481ZM362.172 3C374.742 3 380.439 3.02567 385.04 4.25614L386.59 -1.54016C381.036 -3.02567 374.356 -3 362.172 -3V3ZM417.021 28.8908C413.048 14.0356 401.445 2.43261 386.59 -1.54016L385.04 4.25614C397.822 7.67457 407.806 17.6586 411.225 30.4409L417.021 28.8908ZM412.481 53.8388C412.481 65.3992 412.459 71.7279 413.721 76.8687L419.548 75.4383C418.503 71.1827 418.481 65.7671 418.481 53.8388H412.481ZM467.74 103.618C456.165 103.618 450.917 103.596 446.66 102.551L445.23 108.378C450.369 109.639 456.52 109.618 467.74 109.618V103.618ZM413.721 76.8687C417.538 92.4192 429.68 104.561 445.23 108.378L446.66 102.551C433.28 99.2663 422.832 88.819 419.548 75.4383L413.721 76.8687Z" fill="white" mask="url(#path-1-inside-1_1131_114)"/>
<path d="M434.5 43C434.5 20.0802 453.08 1.5 476 1.5H477C499.92 1.5 518.5 20.0802 518.5 43C518.5 65.9198 499.92 84.5 477 84.5H476C453.08 84.5 434.5 65.9198 434.5 43Z" stroke="white" stroke-width="3"/>
</svg>
