<svg width="206" height="73" viewBox="0 0 206 73" fill="none" xmlns="http://www.w3.org/2000/svg">
<g clip-path="url(#clip0_802_724)">
<path d="M21.9191 5.34209C21.9421 4.97051 21.9828 4.59904 21.985 4.22734C21.993 2.86534 21.9881 1.50326 21.9881 0.058492C22.2996 0.037694 22.5985 0.000410897 22.8973 0.000344406C28.9263 -0.000980763 34.9553 0.00347105 40.9843 0.00362209C46.5256 0.00376002 52.067 -0.000938489 57.6083 0.00016921C58.1122 0.000269883 58.616 0.0271762 59.159 0.042756V38.6923C58.9132 38.7147 58.6593 38.7583 58.4055 38.758C54.4608 38.7541 50.5162 38.7409 46.5715 38.7375C43.3802 38.7347 40.1888 38.7447 36.9974 38.7447C33.1192 38.7446 29.2409 38.7394 25.3627 38.7379C24.587 38.7376 23.8113 38.7447 23.0356 38.7476C22.7082 38.7488 22.3809 38.7478 21.9756 38.7478V34.2718C21.3057 34.1563 20.7016 34.0544 20.0982 33.9479C14.3633 32.9348 9.71705 30.065 5.8995 25.7695C3.503 23.073 1.61599 20.0642 0.218864 16.7507C-0.0822882 16.0365 -0.0938927 16.1115 0.445121 15.6357C5.3915 11.2697 10.91 7.88933 17.3079 6.0354C18.6707 5.64048 20.0585 5.35641 21.4823 5.28621C21.6311 5.27887 21.7822 5.31479 21.9336 5.3294C21.9656 5.60482 22.0163 5.88104 22.0224 6.15822C22.0358 6.76326 22.0265 7.36878 22.0265 8.01862C25.4603 7.82805 28.6308 8.45654 31.6039 10.028C34.5357 11.5775 37.0168 13.6442 39.1137 16.2225C38.9392 16.4559 38.821 16.6407 38.6768 16.8027C37.7969 17.7911 36.9466 18.8087 36.0197 19.7521C34.1845 21.6198 32.1561 23.2481 29.7817 24.4115C27.6401 25.4607 25.4102 25.9626 23.022 25.4751C22.7253 25.4145 22.4259 25.3668 22.0668 25.3022V27.9116C22.1763 27.9467 22.2565 27.9863 22.3405 27.9974C24.0879 28.2282 25.835 28.2417 27.5683 27.9011C30.2308 27.3779 32.6597 26.2785 34.9686 24.8904C38.4077 22.8227 41.3999 20.2212 44.155 17.3361C44.5341 16.9391 44.8871 16.5176 45.2645 16.0937C45.1623 15.9567 45.0915 15.8488 45.0079 15.7516C43.6228 14.1401 42.095 12.6735 40.4172 11.3655C37.9111 9.41175 35.2079 7.79933 32.2078 6.69097C29.1119 5.54719 25.9202 5.04886 22.6242 5.19708C22.3875 5.20773 22.1541 5.29203 21.9191 5.34209ZM21.9464 11.6472C21.9748 11.8824 22.0242 12.1172 22.0277 12.3528C22.0384 13.0739 22.0316 13.7953 22.0316 14.5502C22.229 14.5887 22.3962 14.6304 22.5661 14.653C24.4082 14.8983 25.8494 15.7886 26.8799 17.3182C27.3964 18.0849 27.8772 18.8753 28.378 19.6526C28.5163 19.8673 28.6681 20.0735 28.8649 20.3574C30.5588 18.9465 32.1903 17.5877 33.8555 16.2009C31.3662 13.4999 28.4902 11.7618 24.8295 11.5166C23.8572 11.4514 22.8841 11.417 21.9269 11.6645C22.032 10.4852 21.9274 9.30972 21.9538 8.06516C21.2464 8.16457 20.6341 8.23597 20.0271 8.33818C14.5346 9.26305 10.0502 11.9193 6.44881 16.1066C6.10105 16.511 6.04596 16.854 6.24621 17.3469C7.40739 20.2048 8.93174 22.8392 10.9945 25.1552C13.7865 28.2899 17.1961 30.3588 21.3815 31.09C21.547 31.1189 21.719 31.1116 21.962 31.1254C21.962 30.1992 21.9677 29.3242 21.9597 28.4492C21.9553 27.9718 21.9447 27.9719 21.4473 27.8611C19.5163 27.4311 17.7681 26.6194 16.1953 25.4234C13.5027 23.3759 11.7819 20.663 10.6365 17.5407C10.4931 17.1496 10.6212 16.9263 10.8868 16.6824C13.8473 13.9647 17.3117 12.2725 21.2963 11.6405C21.5064 11.6072 21.728 11.6447 21.9464 11.6472ZM22.0648 34.1838C22.6285 34.2274 23.1548 34.2864 23.6826 34.3059C25.7939 34.3837 27.8863 34.1656 29.9681 33.8521C32.8598 33.4165 35.705 32.7735 38.5208 31.981C42.3859 30.8932 46.1493 29.5542 49.7255 27.7263C51.243 26.9507 52.7159 26.0987 54.067 25.0549C54.2341 24.9258 54.387 24.7787 54.6215 24.5747C52.4862 23.0076 50.1096 22.0088 47.9522 20.6249C47.7738 20.7549 47.6281 20.851 47.4937 20.9606C46.4841 21.7841 45.4953 22.6338 44.4651 23.4309C41.8928 25.4211 39.2061 27.2346 36.2464 28.6282C31.874 30.6871 27.291 31.6287 22.451 31.2686C22.3279 31.2595 22.2018 31.2888 22.0648 31.3013V34.1838ZM21.9523 14.6431C21.2721 14.5561 20.6856 14.6083 20.0981 14.7226C18.3107 15.0704 16.9115 16.0762 15.6235 17.2841C15.3579 17.5332 15.3181 17.764 15.4477 18.0979C16.0402 19.6254 16.8145 21.0477 17.8784 22.3032C18.727 23.3045 19.7211 24.1363 20.9111 24.7156C21.2344 24.873 21.5836 24.978 21.9523 25.119V14.6431Z" fill="#83BA41"/>
<path d="M137.591 32.7174C137.56 24.2448 137.576 15.8126 137.582 7.34359C137.829 7.32148 137.999 7.29304 138.169 7.29295C141.936 7.29079 145.705 7.25031 149.472 7.30901C151.463 7.34003 153.451 7.53443 155.366 8.16759C158.541 9.21726 160.628 11.339 161.64 14.4826C162.615 17.511 162.79 20.6091 162.24 23.7363C162.069 24.7062 161.832 25.6752 161.514 26.607C160.501 29.5702 158.373 31.3715 155.373 32.1965C153.913 32.598 152.411 32.7442 150.901 32.7488C146.712 32.7615 142.523 32.7543 138.334 32.7528C138.118 32.7527 137.901 32.7327 137.591 32.7174ZM144.885 27.2726C145.079 27.292 145.207 27.3161 145.335 27.3159C146.375 27.3149 147.419 27.3584 148.456 27.2898C149.312 27.2331 150.18 27.1203 151.006 26.8952C153.062 26.3344 154.414 25.0161 155.002 22.9609C155.522 21.1437 155.524 19.3129 155.077 17.4885C154.677 15.8556 153.795 14.536 152.245 13.7782C151.598 13.4623 150.883 13.2458 150.176 13.0995C148.495 12.7519 146.784 12.841 145.08 12.8796C145.021 12.881 144.964 12.9308 144.885 12.968V27.2726Z" fill="white"/>
<path d="M94.6483 32.731H87.5832C87.5704 32.4813 87.548 32.2488 87.548 32.0162C87.5473 28.1893 87.5443 24.3624 87.5537 20.5356C87.5568 19.2558 87.4792 17.9883 87.167 16.7409C86.6219 14.5625 85.1766 13.2603 82.9241 13.1068C81.2684 12.994 79.6019 13.0354 77.9401 13.0126C77.3911 13.005 76.8419 13.0114 76.2226 13.0114V32.7093H68.9487C68.8206 32.1628 68.7709 8.18101 68.899 7.31377C69.0961 7.29914 69.3082 7.26978 69.5204 7.26964C74.0199 7.26671 78.5196 7.23937 83.0187 7.27942C85.0171 7.2972 86.988 7.56749 88.8772 8.30031C91.5727 9.34586 93.2501 11.2819 94.0759 13.994C94.5091 15.4166 94.6647 16.8826 94.6718 18.3585C94.6936 22.867 94.6873 27.3756 94.6892 31.8842C94.6893 32.1443 94.6647 32.4043 94.6483 32.731Z" fill="white"/>
<path d="M206.144 32.7247H198.359C197.852 31.2517 197.347 29.7831 196.822 28.2589C196.565 28.2589 196.325 28.259 196.086 28.2589C192.564 28.2575 189.041 28.2563 185.519 28.2542C184.878 28.2538 184.872 28.2499 184.663 28.8331C184.298 29.8466 183.943 30.8634 183.581 31.8779C183.485 32.146 183.38 32.4106 183.266 32.712H176.152C176.215 32.512 176.259 32.333 176.327 32.1633C178.41 26.934 180.497 21.7064 182.58 16.4768C183.743 13.5557 184.903 10.6334 186.05 7.70611C186.163 7.41919 186.293 7.2816 186.618 7.28322C189.675 7.29847 192.732 7.30124 195.789 7.30858C195.81 7.30863 195.831 7.32217 195.954 7.3648C199.324 15.7522 202.721 24.2051 206.144 32.7247ZM191.015 12.2172C190.967 12.2139 190.919 12.2106 190.87 12.2073C189.406 16.0468 187.942 19.8862 186.442 23.8216C189.447 23.8578 192.333 23.8418 195.3 23.8066C193.845 19.8697 192.43 16.0435 191.015 12.2172Z" fill="white"/>
<path d="M95.9023 7.33147H103.627C105.531 13.938 107.434 20.5417 109.337 27.1454C109.391 27.1465 109.444 27.1477 109.497 27.1489C111.484 20.5438 113.472 13.9388 115.464 7.31836H122.835C122.786 7.5485 122.762 7.75277 122.699 7.94446C121.899 10.3888 121.09 12.8305 120.288 15.2744C119.362 18.0941 118.445 20.9164 117.517 23.7353C116.603 26.5126 115.68 29.2873 114.76 32.0625C114.691 32.2705 114.606 32.4735 114.516 32.7148H104.119C103.724 31.944 95.9244 7.86882 95.9023 7.33147Z" fill="white"/>
<path d="M165.95 7.31445H173.092C173.114 7.58805 173.152 7.84138 173.152 8.09474C173.155 16.0497 173.155 24.0047 173.154 31.9597C173.154 32.1974 173.133 32.4352 173.119 32.7132H166C165.857 32.2631 165.805 8.18965 165.95 7.31445Z" fill="white"/>
<path d="M126.056 7.32422H133.065C133.213 7.80113 133.281 31.1535 133.143 32.6325C132.655 32.7893 127.387 32.8396 126.072 32.7C125.91 32.2095 125.887 8.07024 126.056 7.32422Z" fill="white"/>
<path d="M194.906 62.0656V72.8111H193.293C193.257 67.8856 193.282 62.976 193.281 57.9763C193.763 57.9763 194.198 57.9579 194.63 57.9878C194.756 57.9965 194.899 58.1221 194.987 58.2316C195.094 58.3663 195.157 58.538 195.231 58.6974C196.583 61.6106 197.933 64.525 199.289 67.4369C199.415 67.7087 199.575 67.9652 199.795 68.3676C200.71 66.5647 201.423 64.8291 202.205 63.1267C202.986 61.429 203.75 59.724 204.53 58.0038H206.149C206.181 62.9481 206.169 67.8575 206.156 72.8537C205.848 72.8537 205.612 72.8537 205.376 72.8537C205.135 72.8537 204.893 72.8537 204.575 72.8537C204.482 71.9187 204.541 71.0241 204.529 70.1331C204.518 69.2318 204.519 68.3304 204.518 67.429C204.516 66.5275 204.519 65.6261 204.519 64.7247C204.519 63.8343 204.519 62.9439 204.448 62.0352C203.028 64.815 201.78 67.6606 200.478 70.4387C200.406 70.4644 200.386 70.4762 200.365 70.4787C199.52 70.5744 198.922 70.247 198.571 69.4966C197.467 67.1227 196.367 64.7471 195.264 62.3727C195.211 62.2578 195.148 62.1473 195.09 62.0348C195.028 62.0451 194.967 62.0553 194.906 62.0656Z" fill="white"/>
<path d="M100.196 69.4657V58.0097H101.824V72.8519C101.384 72.8519 100.969 72.8761 100.56 72.8388C100.414 72.8256 100.247 72.6891 100.151 72.5632C99.9106 72.2486 99.706 71.9071 99.4851 71.5777C97.3858 68.4485 95.2866 65.3192 93.1859 62.191C92.993 61.9037 92.7894 61.6234 92.4965 61.2053C92.4705 61.5227 92.4459 61.6831 92.446 61.8435C92.4473 65.274 92.4516 68.7045 92.4547 72.135C92.4548 72.2449 92.4532 72.3551 92.4464 72.4647C92.4324 72.6904 92.3302 72.8467 92.0844 72.8507C91.6688 72.8577 91.253 72.8527 90.7891 72.8527V57.9734C91.2233 57.9734 91.6417 57.9361 92.0477 57.9905C92.2272 58.0146 92.4284 58.1929 92.5397 58.3552C93.4124 59.6271 94.267 60.9112 95.1247 62.1933C96.6195 64.4277 98.1117 66.6638 99.6075 68.8975C99.7484 69.1079 99.9074 69.3062 100.058 69.5101C100.104 69.4953 100.15 69.4805 100.196 69.4657Z" fill="white"/>
<path d="M7.12272 61.3268C7.05705 65.1375 7.12856 68.9504 7.08974 72.8094H5.50391V58.0254H7.04669C9.59893 61.8236 12.1765 65.6596 14.8247 69.6005C15.0217 68.9595 14.9021 68.4248 14.9207 67.9025C14.9403 67.3535 14.9295 66.8035 14.9303 66.2539C14.9312 65.7043 14.9299 65.1548 14.93 64.6052C14.9301 64.0776 14.9312 63.55 14.9313 63.0225C14.9314 62.4729 14.9307 61.9233 14.9307 61.3738C14.9306 60.8242 14.9311 60.2747 14.9312 59.7251C14.9314 59.1779 14.9313 58.6308 14.9313 58.0656C15.4988 57.8977 16.0182 57.9858 16.5867 58.006V72.846C16.1254 72.846 15.6866 72.8851 15.2612 72.8271C15.0854 72.8032 14.8987 72.5978 14.7845 72.4297C13.6336 70.7349 12.4971 69.0305 11.3559 67.3292C10.0798 65.4267 8.80311 63.5246 7.5263 61.6225C7.45471 61.5158 7.37979 61.4114 7.30642 61.3059C7.24519 61.3129 7.18395 61.3198 7.12272 61.3268Z" fill="white"/>
<path d="M131.668 66.1596C132.831 68.3693 133.974 70.5406 135.146 72.769C134.551 72.9297 134.002 72.8968 133.474 72.8212C133.296 72.7957 133.114 72.5203 133.008 72.3204C132.399 71.1732 131.814 70.0141 131.22 68.8594C130.837 68.1158 130.453 67.3727 130.07 66.6296C129.979 66.4537 129.903 66.2708 129.648 66.2719C128.566 66.2766 127.483 66.2739 126.331 66.2739V72.8032H124.71C124.687 72.5712 124.644 72.3391 124.644 72.107C124.64 67.5333 124.64 62.9596 124.642 58.3859C124.642 58.2787 124.665 58.1715 124.688 57.9672C124.929 57.9672 125.165 57.9671 125.401 57.9672C127.107 57.9679 128.813 57.9639 130.52 57.9718C131.26 57.9752 131.971 58.1414 132.644 58.4436C134.236 59.1588 135.061 60.7323 134.853 62.6377C134.676 64.2589 133.814 65.3553 132.284 65.9394C132.102 66.0089 131.917 66.0709 131.668 66.1596ZM126.318 64.8028C126.532 64.8203 126.639 64.8369 126.746 64.8367C127.943 64.8347 129.14 64.8435 130.337 64.8185C130.731 64.8103 131.137 64.7578 131.514 64.6472C132.306 64.4153 132.909 63.9177 133.107 63.1066C133.522 61.4089 133.005 59.5918 130.519 59.4212C130.453 59.4167 130.387 59.416 130.32 59.4162C129.167 59.4196 128.015 59.421 126.862 59.4298C126.695 59.4311 126.529 59.4686 126.318 59.4948V64.8028Z" fill="white"/>
<path d="M167.106 72.8391H165.611C165.455 72.333 165.392 59.4725 165.536 58.0271C165.691 58.0085 165.859 57.9714 166.026 57.9711C167.843 57.9675 169.66 57.936 171.475 57.9811C172.889 58.0162 174.103 58.531 174.969 59.7089C176.227 61.4211 176.056 65.119 172.814 66.0223C172.732 66.0452 172.654 66.0817 172.493 66.1422C173.564 68.3935 174.812 70.5262 175.947 72.8136H174.068C173.534 71.78 172.999 70.7458 172.465 69.711C171.951 68.714 171.427 67.7213 170.93 66.716C170.777 66.4057 170.604 66.2472 170.228 66.2572C169.233 66.2837 168.237 66.2662 167.167 66.2662C167.04 67.3937 167.164 68.4823 167.154 69.5676C167.144 70.6379 167.123 71.7081 167.106 72.8391ZM167.164 64.7595C167.254 64.79 167.314 64.829 167.375 64.8286C168.77 64.8201 170.166 64.8146 171.561 64.7886C171.822 64.7838 172.09 64.7199 172.34 64.6383C173.098 64.3911 173.649 63.918 173.901 63.144C174.105 62.5186 174.097 61.8837 173.931 61.2596C173.646 60.1941 172.735 59.4892 171.437 59.4407C170.067 59.3895 168.692 59.4441 167.32 59.4561C167.284 59.4564 167.249 59.4996 167.164 59.5544V64.7595Z" fill="white"/>
<path d="M160.361 62.2907C160.122 61.471 159.811 60.752 159.18 60.2098C158.088 59.2722 156.833 59.0794 155.512 59.5313C154.195 59.9814 153.374 60.9114 153.224 62.3326C153.171 62.8344 153.124 63.3406 153.132 63.844C153.155 65.4247 153.131 67.0113 153.267 68.5836C153.405 70.1765 154.641 71.2843 156.243 71.4612C157.274 71.5752 158.225 71.3947 159.057 70.7387C159.769 70.1782 160.219 69.4557 160.306 68.5651C160.37 67.9155 160.319 67.2547 160.319 66.5248C159.14 66.4063 157.953 66.4976 156.742 66.4588V65.1622C157.313 64.9748 161.191 64.942 162.005 65.1297C162.014 66.6235 162.215 68.147 161.712 69.6146C161.112 71.3656 159.794 72.3843 158.035 72.8234C156.269 73.2643 154.66 72.8672 153.234 71.7343C152.223 70.9307 151.68 69.8665 151.581 68.6135C151.409 66.4425 151.387 64.2644 151.594 62.0941C151.824 59.688 154.05 58.0352 156.251 57.8599C158.961 57.6441 161.194 59.1845 161.865 61.7842C161.902 61.9294 161.901 62.0844 161.924 62.2907H160.361Z" fill="white"/>
<path d="M87.2798 65.2775C87.2429 66.3282 87.2229 67.3383 87.1691 68.3466C86.9747 71.9896 83.2192 73.5884 80.5655 72.8008C78.7705 72.2681 77.4635 71.2195 76.9846 69.3527C76.8547 68.8462 76.788 68.3121 76.7789 67.7891C76.7503 66.1418 76.7276 64.4928 76.7679 62.8461C76.8256 60.4892 78.2171 58.659 80.4301 58.0621C82.4901 57.5064 84.3281 57.9512 85.8692 59.4633C86.682 60.2609 87.0637 61.2516 87.1479 62.3552C87.2231 63.3399 87.2393 64.329 87.2798 65.2775ZM85.5553 65.4613C85.5572 65.4613 85.5592 65.4613 85.5611 65.4614C85.5611 64.5827 85.598 63.7021 85.5538 62.8256C85.4413 60.5931 83.9512 59.5009 82.3304 59.3321C80.4893 59.1404 78.7441 60.3902 78.5226 62.1506C78.2585 64.2492 78.2789 66.3604 78.49 68.4637C78.7903 71.4546 82.2227 72.1604 84.0511 70.8963C85.0479 70.2072 85.4893 69.2475 85.5467 68.0966C85.5904 67.2202 85.5553 66.3399 85.5553 65.4613Z" fill="white"/>
<path d="M148.424 65.3821C148.366 66.5 148.34 67.6205 148.243 68.7351C148.045 71.0313 146.239 72.4227 144.401 72.8355C142.738 73.2089 141.195 72.8889 139.811 71.873C138.69 71.0497 138.112 69.927 137.982 68.5722C137.782 66.4901 137.794 64.405 137.963 62.3213C138.184 59.6047 140.403 58.1911 142.293 57.9205C144.134 57.6569 145.708 58.1718 147.025 59.4572C147.928 60.3382 148.279 61.4603 148.327 62.68C148.361 63.579 148.333 64.4804 148.333 65.3808C148.363 65.3812 148.394 65.3816 148.424 65.3821ZM139.585 65.3841C139.578 65.3841 139.571 65.3841 139.565 65.3841C139.565 66.2186 139.543 67.0539 139.573 67.8873C139.589 68.3221 139.649 68.7676 139.773 69.184C140.209 70.659 141.744 71.6173 143.389 71.4802C145.147 71.3336 146.406 70.2443 146.593 68.5979C146.828 66.5427 146.784 64.4791 146.619 62.4182C146.422 59.9628 143.787 58.6695 141.634 59.6234C140.337 60.1982 139.669 61.2324 139.594 62.6183C139.545 63.5378 139.585 64.462 139.585 65.3841Z" fill="white"/>
<path d="M35.5366 59.4558V64.5514C37.6782 64.6078 39.8155 64.5452 42.0058 64.5932V66.0678H35.5588C35.4737 67.867 35.5666 69.5916 35.4848 71.3949H43.095C43.1132 71.685 43.1317 71.8968 43.1382 72.1091C43.1449 72.3252 43.1397 72.5418 43.1397 72.8518C40.0338 72.8985 36.9862 72.8589 33.9515 72.8679C33.7712 72.3358 33.7406 58.8386 33.9135 58.0059H43.0946V59.3901C42.8843 59.4007 42.6728 59.4203 42.4613 59.4205C40.4222 59.4221 38.3832 59.4193 36.3441 59.4213C36.0847 59.4216 35.8253 59.4429 35.5366 59.4558Z" fill="white"/>
<path d="M113.048 66.8196V72.8139H111.543C111.388 72.368 111.348 58.7808 111.511 57.9955C111.716 57.9866 111.932 57.9693 112.148 57.9691C113.81 57.9678 115.473 57.9703 117.135 57.9706C118.043 57.9708 118.89 58.2021 119.665 58.6668C120.619 59.2395 121.241 60.0584 121.492 61.15C121.662 61.8909 121.696 62.6382 121.55 63.3763C121.23 64.9932 120.236 66.0423 118.656 66.5019C118.069 66.6728 117.439 66.7453 116.825 66.772C115.829 66.8153 114.83 66.7817 113.833 66.7853C113.595 66.7861 113.356 66.8056 113.048 66.8196ZM113.093 65.3251C114.663 65.2618 116.166 65.4577 117.664 65.2221C119.055 65.0033 119.955 63.9994 120.021 62.6057C120.095 61.0124 119.376 59.8702 117.953 59.5693C116.363 59.2332 114.743 59.4804 113.093 59.4371V65.3251Z" fill="white"/>
<path d="M190.587 72.8573C190.023 72.8573 189.586 72.8507 189.149 72.8594C188.823 72.8659 188.755 72.6258 188.674 72.3981C188.342 71.467 188.013 70.5346 187.667 69.5566C187.475 69.5421 187.282 69.5155 187.089 69.5148C185.295 69.5083 183.501 69.5062 181.707 69.503C181.132 69.5019 181.126 69.5003 180.918 70.0754C180.633 70.8603 180.344 71.6441 180.085 72.4374C179.986 72.74 179.821 72.8672 179.511 72.8597C179.115 72.8502 178.718 72.8574 178.201 72.8574C179.107 70.3023 180.052 67.8539 180.959 65.3929C181.87 62.9228 182.8 60.4597 183.721 57.9941H185.077C186.896 62.9003 188.723 67.83 190.587 72.8573ZM187.118 68.0639C186.338 65.4994 185.341 63.0536 184.436 60.5482C183.389 63.0017 182.59 65.5225 181.616 68.0639H187.118Z" fill="white"/>
<path d="M46.3795 58.002C46.6308 57.9901 46.8467 57.9718 47.0626 57.9711C48.6796 57.9655 50.2967 57.954 51.9135 57.9666C52.3307 57.9698 52.7589 58.0058 53.1621 58.1057C54.8133 58.5149 56.0051 59.4601 56.3867 61.16C56.7825 62.9226 56.493 64.5359 55.006 65.7593C54.1117 66.495 53.0332 66.7332 51.9077 66.7679C50.8675 66.8 49.8257 66.78 48.7847 66.7827C48.5225 66.7833 48.2603 66.7828 47.9309 66.7828V72.7988H46.4365C46.2925 72.3598 46.2288 59.4701 46.3795 58.002ZM47.9297 65.3224C48.8223 65.3224 49.6574 65.3313 50.4922 65.3195C51.132 65.3104 51.7789 65.3288 52.4094 65.2411C53.9936 65.0207 54.8697 64.0172 54.9358 62.4305C54.9912 61.1026 54.2307 59.957 53.0095 59.5958C52.6336 59.4846 52.2268 59.4393 51.8328 59.432C50.7053 59.4112 49.5771 59.4228 48.4492 59.4288C48.2816 59.4297 48.1142 59.4696 47.9297 59.4937V65.3224Z" fill="white"/>
<path d="M28.946 68.5309H30.5733C30.5227 68.7897 30.4967 69.0202 30.4319 69.2393C29.6818 71.7743 27.4566 73.2302 24.8064 72.9432C23.4744 72.799 22.3465 72.2595 21.4161 71.3062C20.7262 70.5992 20.3454 69.7429 20.2504 68.7761C20.0329 66.5608 20.0338 64.3429 20.2372 62.1253C20.4557 59.7423 22.4361 58.2976 24.3389 57.9552C25.1077 57.8169 25.8858 57.8067 26.6525 57.971C28.682 58.4059 30.2316 60.0932 30.5257 62.1673C30.0945 62.3326 29.8053 62.3476 28.9397 62.2403C28.8826 62.0825 28.8177 61.9021 28.752 61.722C27.9116 59.4189 25.239 58.559 23.2558 59.9508C22.3354 60.5968 21.9303 61.512 21.8407 62.5925C21.6877 64.4365 21.6871 66.2801 21.8328 68.1256C21.9828 70.0257 23.1021 71.2794 24.8678 71.4868C26.7877 71.7124 28.3141 70.7108 28.8629 68.8647C28.8878 68.781 28.9054 68.6952 28.946 68.5309Z" fill="white"/>
<path d="M64.373 72.8174H62.7739C62.6818 68.3759 62.7363 63.95 62.7334 59.4536H58.4551V58.0078H68.7395C68.7535 58.2338 68.7718 58.4444 68.7782 58.6554C68.7847 58.8714 68.7796 59.0877 68.7796 59.3914C67.3079 59.4718 65.8781 59.3666 64.373 59.4485V72.8174Z" fill="white"/>
<path d="M73.1432 72.8312H71.627V58.0137H73.2033C73.3535 58.6889 73.3059 72.1822 73.1432 72.8312Z" fill="white"/>
<path d="M0 72.7823V58.0017C0.288945 57.9897 0.524489 57.976 0.760217 57.9712C1.00178 57.9664 1.24352 57.9702 1.46925 57.9702C1.63509 58.4938 1.6961 71.6299 1.5528 72.7423C1.06077 72.8971 0.750031 72.9083 0 72.7823Z" fill="white"/>
</g>
<defs>
<clipPath id="clip0_802_724">
<rect width="206" height="73" fill="white"/>
</clipPath>
</defs>
</svg>
