<svg width="74" height="60" viewBox="0 0 74 60" fill="none" xmlns="http://www.w3.org/2000/svg">
<g clip-path="url(#clip0_834_1032)">
<path d="M45.0815 12.9211C42.931 11.1731 40.7809 9.4247 38.6299 7.67725C37.7756 6.98313 36.9381 6.26652 36.0606 5.6028C33.6762 3.79933 34.6665 1.51876 36.6278 0.592469C38.4197 -0.25376 40.2405 -0.252918 41.8582 0.983091C49.7297 6.99743 57.6088 13.0029 65.4162 19.0997C69.3969 22.2082 72.1144 26.2685 73.2994 31.195C75.3002 39.5133 72.9634 46.6611 66.9583 52.6099C62.587 56.9401 57.2035 59.281 51.0893 59.8527C42.8375 60.6244 35.5359 58.3851 29.4766 52.6339C25.7736 49.1193 23.4745 44.8102 22.7623 39.7177C22.6835 39.1542 22.7206 38.5719 22.7343 37.9991C22.7473 37.4563 22.8002 36.9145 22.8431 36.2551C22.572 36.4634 22.367 36.6126 22.171 36.7728C17.6503 40.4675 13.1351 44.1691 8.60744 47.8552C7.4767 48.7758 6.21764 49.4293 4.71581 49.5154C3.05485 49.6106 1.59786 49.1967 0.662614 47.7353C-0.296429 46.2367 -0.157574 44.6366 0.714201 43.1829C1.25421 42.2825 1.97879 41.4168 2.80719 40.7762C11.344 34.1743 19.9191 27.6218 28.4827 21.0543C28.6625 20.9164 28.8315 20.7643 29.1756 20.4769C28.7134 20.4769 28.4631 20.4765 28.2128 20.4769C23.782 20.4847 19.351 20.5179 14.9206 20.4785C14.0576 20.4709 13.1285 20.3356 12.3494 19.9902C10.5971 19.2136 10.096 17.3664 11.101 15.7217C12.0378 14.1887 13.4769 13.413 15.2329 13.1983C15.6827 13.1433 16.1413 13.1475 16.5959 13.1464C25.8167 13.1254 35.0375 13.1076 44.2583 13.0893C44.5151 13.0887 44.7719 13.0892 45.0287 13.0892C45.0463 13.0332 45.0639 12.9771 45.0815 12.9211ZM47.5984 48.8481C52.7921 48.9922 57.4238 46.9486 60.5986 43.3659C65.36 37.9926 64.8987 29.6423 59.5748 24.8354C53.0934 18.9834 43.4615 18.9767 36.9825 24.8197C31.2364 30.0018 31.1391 39.032 36.7629 44.3432C39.9574 47.3603 43.7685 48.8094 47.5984 48.8481Z" fill="white"/>
<path d="M58.5554 34.9627C58.4325 37.8272 56.6876 40.4751 53.5229 42.057C49.6596 43.9883 45.8051 43.7565 42.2685 41.2105C37.608 37.8555 37.3321 31.6105 41.5828 27.7578C46.0462 23.7124 53.5138 24.4947 57.0153 29.3887C58.0436 30.826 58.5704 32.4414 58.5554 34.9627Z" fill="white"/>
</g>
<defs>
<clipPath id="clip0_834_1032">
<rect width="74" height="60" fill="white"/>
</clipPath>
</defs>
</svg>
