<svg width="71" height="53" viewBox="0 0 71 53" fill="none" xmlns="http://www.w3.org/2000/svg">
<g clip-path="url(#clip0_834_1006)">
<path d="M48.791 47.1937C50.8255 46.2189 52.7468 45.2984 54.8002 44.3146C54.2814 43.8704 53.939 43.5379 53.5526 43.2682C53.4215 43.1768 53.1383 43.1701 52.9936 43.2496C48.872 45.5146 44.3754 46.4183 39.7587 46.8129C34.2129 47.2868 28.7108 46.9649 23.3478 45.3906C21.6029 44.8783 19.9328 44.094 18.2633 43.3558C17.7908 43.1468 17.5041 43.0959 17.1523 43.4859C16.9187 43.7447 16.6198 43.945 16.1853 44.31C18.2505 45.3007 20.1714 46.2222 22.1843 47.1878C21.3583 48.5413 20.5486 49.9563 19.6529 51.3149C18.3419 53.3032 18.8752 53.2989 16.3037 52.4952C10.7037 50.7451 5.63944 47.9505 0.856153 44.6041C0.375427 44.2678 0.25344 43.8318 0.21231 43.3137C-0.133494 38.9578 -0.0746099 34.6128 0.52031 30.2778C1.78717 21.0466 5.3286 12.7017 10.4404 4.9751C10.7223 4.54901 11.2108 4.16025 11.689 3.97749C15.9011 2.36747 20.2101 1.0691 24.6154 0.0880493C25.312 -0.0670708 25.7383 0.040726 26.0332 0.740715C26.3966 1.60294 26.8689 2.41887 27.2692 3.2665C27.428 3.60265 27.562 3.77756 28.0141 3.70856C32.1343 3.07978 36.2727 2.96882 40.4219 3.38162C41.2372 3.46274 42.0585 3.53366 42.859 3.69704C43.3815 3.80367 43.5677 3.61927 43.7652 3.17929C44.1784 2.25883 44.6744 1.37571 45.1156 0.467234C45.3164 0.0537085 45.5828 -0.0648225 46.0424 0.0315765C50.6511 0.998324 55.1317 2.39287 59.5312 4.05221C59.8861 4.18606 60.2418 4.4869 60.4531 4.80527C65.2709 12.0642 68.7286 19.8866 70.2081 28.5118C71.0465 33.4 71.183 38.3203 70.7876 43.259C70.7469 43.7674 70.6734 44.2312 70.186 44.5726C65.0631 48.1615 59.6158 51.09 53.575 52.8509C52.7855 53.0811 52.3187 52.9146 51.9054 52.2246C50.8935 50.5353 49.8352 48.8738 48.791 47.1937ZM53.7026 29.2177C53.5713 28.4876 53.4974 27.7416 53.2993 27.03C51.9848 22.309 46.4236 20.7493 43.0565 24.1432C40.4079 26.813 40.3403 31.4336 42.9097 34.1781C45.1841 36.6075 48.6648 36.8559 51.171 34.7188C52.8459 33.2906 53.6038 31.4168 53.7026 29.2177ZM17.2871 29.2897C17.4224 30.0189 17.4815 30.7724 17.7069 31.4728C18.4494 33.7811 19.9388 35.4101 22.3439 35.9975C24.6076 36.5504 26.5463 35.8131 28.1063 34.1441C30.7454 31.3205 30.5749 26.607 27.7484 23.9671C26.3943 22.7025 24.7743 22.0936 22.908 22.3675C19.6494 22.8458 17.3591 25.7267 17.2871 29.2897Z" fill="white"/>
</g>
<defs>
<clipPath id="clip0_834_1006">
<rect width="71" height="53" fill="white"/>
</clipPath>
</defs>
</svg>
