<svg width="62" height="64" viewBox="0 0 62 64" fill="none" xmlns="http://www.w3.org/2000/svg">
<g clip-path="url(#clip0_834_1027)">
<path d="M5.00837e-08 31.9128C6.07551 25.8191 12.0575 19.8034 18.0763 13.825C18.4057 13.4978 19.0399 13.3518 19.5361 13.3431C21.4544 13.3097 23.3759 13.4174 25.2922 13.3524C25.7555 13.3367 26.3813 12.9726 26.6271 12.5777C27.6623 10.9151 28.5564 9.16491 29.5631 7.48344C29.7909 7.10291 30.2182 6.70534 30.6293 6.59242C38.5836 4.40769 46.549 2.2634 54.5135 0.11605C54.7473 0.0530086 54.9964 0.0471686 55.3475 0C55.9244 2.14043 56.4884 4.22477 57.0479 6.31032C58.691 12.4352 60.3411 18.5582 61.9529 24.6913C62.0512 25.0654 61.9491 25.5821 61.7554 25.9285C60.7577 27.7125 59.6634 29.4429 58.6917 31.2403C58.4877 31.6177 58.4809 32.2928 58.6834 32.668C59.6538 34.4663 60.7476 36.1972 61.7468 37.9806C61.9424 38.3297 62.0632 38.8452 61.9653 39.2169C59.9158 47.0038 57.8308 54.7814 55.7484 62.5596C55.6308 62.9986 55.476 63.4275 55.2946 64C52.8939 63.3611 50.5333 62.7383 48.1757 62.1043C42.4237 60.5575 36.6676 59.0252 30.9308 57.4238C30.3798 57.27 29.808 56.764 29.4936 56.2648C28.4938 54.6773 27.6548 52.9879 26.6524 51.4023C26.4041 51.0097 25.7815 50.6553 25.3158 50.6351C23.3572 50.5505 21.3919 50.6333 19.4314 50.5751C18.9432 50.5606 18.3311 50.3826 18.0001 50.0533C12.1036 44.1863 6.24148 38.2847 0.374077 32.3884C0.26139 32.2751 0.17433 32.1363 5.00837e-08 31.9128ZM51.6463 51.5763C51.8287 51.1341 51.9449 50.9177 52.0093 50.6868C53.7002 44.6248 55.3955 38.564 57.0516 32.4924C57.1724 32.0493 57.081 31.5049 56.9551 31.0442C55.835 26.9439 54.686 22.8515 53.5431 18.7574C52.9652 16.6869 52.3823 14.6179 51.7587 12.3954C51.5107 12.6693 51.38 12.7711 51.3034 12.9042C47.8068 18.9743 44.3001 25.0387 40.8543 31.1377C40.6126 31.5654 40.6177 32.3687 40.8592 32.7992C43.4094 37.3442 46.0304 41.8492 48.6334 46.3645C49.6035 48.0474 50.5776 49.728 51.6463 51.5763ZM46.3229 54.6602C45.9654 53.9169 45.8015 53.5121 45.5858 53.1373C42.3172 47.4583 39.0221 41.7945 35.7903 36.0946C35.331 35.2846 34.8299 35.0134 33.9271 35.0181C27.2908 35.0531 20.6542 35.0359 14.0177 35.0398C13.6179 35.04 13.2181 35.0799 12.6384 35.1109C12.9196 35.4684 13.0687 35.6972 13.2553 35.8893C17.4456 40.2032 21.6315 44.5214 25.8469 48.8104C26.2626 49.2333 26.8241 49.623 27.3859 49.7736C32.0941 51.0364 36.8176 52.2423 41.538 53.4593C43.0081 53.8384 44.4829 54.1991 46.3229 54.6602ZM46.2055 9.43098C45.7304 9.48298 45.4523 9.48019 45.1918 9.5468C39.2185 11.0745 33.2457 12.6044 27.2785 14.1561C26.8956 14.2557 26.4858 14.4625 26.2123 14.7414C21.8546 19.1844 17.5165 23.6468 13.1775 28.1083C13.0172 28.2732 12.8933 28.4736 12.6814 28.75C12.9526 28.8104 13.1028 28.8731 13.2531 28.8732C20.3073 28.8793 27.3617 28.894 34.4157 28.846C34.8288 28.8432 35.4002 28.4247 35.6254 28.0395C39.017 22.2388 42.3647 16.4122 45.7146 10.5871C45.8911 10.2801 45.9956 9.93149 46.2055 9.43098Z" fill="white"/>
</g>
<defs>
<clipPath id="clip0_834_1027">
<rect width="62" height="64" fill="white"/>
</clipPath>
</defs>
</svg>
