<svg width="69" height="69" viewBox="0 0 69 69" fill="none" xmlns="http://www.w3.org/2000/svg">
<g clip-path="url(#clip0_834_1029)">
<path d="M3.81877e-08 34.3192C-0.000905373 14.9543 16.0984 -0.224427 34.921 0.00251175C53.3654 0.22489 68.686 15.5113 68.9949 33.664C69.3248 53.0596 53.7377 68.8134 34.8884 68.9983C15.7098 69.1864 0.105771 53.9401 3.81877e-08 34.3192ZM35.0757 4.40212C18.4962 4.18942 4.85367 17.4423 4.68087 33.9605C4.50829 50.4588 17.9382 63.8949 33.7753 64.2754C50.561 64.6786 64.0968 51.4621 64.5519 35.1593C65.0103 18.7386 51.7299 4.64273 35.0757 4.40212Z" fill="white"/>
<path d="M8.72964 40.5556C8.46574 38.8153 8.68523 37.2834 9.04294 35.768C9.92273 32.0408 11.8711 28.8801 14.3614 26.0363C16.8273 23.2204 19.4634 20.5742 22.4976 18.3519C25.3932 16.231 28.5508 14.6576 32.0933 13.8301C31.9546 13.9358 31.8156 14.0414 31.6771 14.1475C31.5327 14.258 31.3865 14.3664 31.2449 14.4805C29.6882 15.7356 28.34 17.1713 28.0001 19.2142C27.8487 20.1239 27.9158 21.1155 28.1028 22.0251C28.3895 23.419 29.1269 23.7326 30.6244 23.2709C30.6397 23.3878 30.6664 23.4965 30.6664 23.6053C30.6669 30.228 30.735 36.852 30.6191 43.4727C30.5866 45.3295 32.4997 46.6167 33.9304 46.415C35.7448 46.1592 37.183 45.1462 38.5564 44.0363C38.7114 43.9111 38.7319 43.5603 38.7327 43.3139C38.7431 40.1037 38.7396 36.8935 38.7377 33.6834C38.7365 31.6241 38.6908 29.5638 38.7405 27.5058C38.7933 25.3193 37.9427 23.6024 36.2483 22.2629C37.3539 21.9725 39.2661 22.3202 40.3402 22.9976C43.9957 19.2567 48.4078 16.8613 53.7267 15.7449C53.3272 16.2341 53.0268 16.5771 52.7535 16.9405C51.1763 19.0371 49.6084 21.1406 48.0308 23.237C47.585 23.8295 47.4331 24.4988 47.4377 25.2218C47.477 31.3787 47.5227 37.5355 47.5418 43.6924C47.5439 44.3513 47.8911 44.6372 48.4171 44.83C49.2882 45.1494 50.1359 44.9755 50.9603 44.6563C52.5326 44.0475 53.8304 43.0195 55.0663 41.9077C55.6201 41.4094 56.1484 40.8828 56.7348 40.4103C53.8811 46.1213 49.9865 50.9177 44.4569 54.3367C42.8659 52.9976 41.3085 51.6868 39.7306 50.3587C38.2336 51.944 36.7475 53.4848 35.3056 55.0657C34.8925 55.5186 34.5034 55.6526 33.8911 55.5586C30.0015 54.9616 26.2795 53.8915 22.9 51.8169C21.3374 50.8576 19.9557 49.686 18.8458 48.2147C18.7635 48.1056 18.6975 47.9843 18.5946 47.8227C19.0848 47.8962 19.5142 47.9953 19.9477 48.0193C21.4557 48.1031 22.0893 47.5206 22.1021 46.0181C22.1192 43.9992 22.1078 41.98 22.1067 39.9609C22.105 36.8114 22.108 33.6618 22.0966 30.5123C22.0899 28.6871 21.059 27.8752 19.3311 28.502C18.3684 28.8512 17.4237 29.4186 16.6519 30.0938C13.4547 32.8909 10.9524 36.2448 9.00898 40.0165C8.94591 40.1389 8.88231 40.261 8.72964 40.5556Z" fill="white"/>
</g>
<defs>
<clipPath id="clip0_834_1029">
<rect width="69" height="69" fill="white"/>
</clipPath>
</defs>
</svg>
