<svg width="57" height="72" viewBox="0 0 57 72" fill="none" xmlns="http://www.w3.org/2000/svg">
<path d="M19.3018 29.5915C18.2944 29.3294 17.3563 29.0857 16.4184 28.8413C13.0205 27.956 9.6236 27.0666 6.22319 26.1914C5.89275 26.1063 5.72892 25.9377 5.62993 25.6092C4.90915 23.218 4.17178 20.8319 3.43965 18.4442C2.82344 16.4345 2.21332 14.4229 1.58438 12.4174C1.49115 12.1201 1.66716 11.9796 1.81211 11.8137C2.78617 10.6988 3.76719 9.59029 4.74432 8.47823C6.2938 6.7148 7.84247 4.95062 9.39052 3.18588C9.95465 2.54278 10.5081 1.88964 11.0868 1.26041C11.1797 1.15936 11.3965 1.0907 11.5267 1.12451C12.7215 1.43484 13.9097 1.77115 15.0999 2.09979C17.4251 2.74186 19.7511 3.3808 22.0753 4.02685C24.0031 4.56272 25.9283 5.10813 27.8552 5.64715C30.5198 6.39252 33.1842 7.13834 35.85 7.87949C39.8048 8.97904 43.7608 10.074 47.716 11.1723C49.2802 11.6066 50.8423 12.0492 52.4084 12.4765C52.7105 12.5589 52.8353 12.764 52.898 13.0399C53.1453 14.1281 53.3948 15.2158 53.6352 16.3056C54.0911 18.3719 54.5427 20.4393 54.9934 22.5068C55.2435 23.6542 55.4756 24.8059 55.7441 25.9487C55.8131 26.2426 55.7448 26.4258 55.5478 26.625C53.8656 28.3255 52.189 30.0318 50.5131 31.7387C45.9469 36.3896 41.0861 41.4 36.5219 46.0528C36.4275 46.1489 36.6447 45.9029 36.5219 46.0528C36.6783 46.1164 36.7849 46.1751 36.8988 46.2039C39.5464 46.8732 42.1954 47.5367 44.8427 48.2073C45.8838 48.471 46.9168 48.7693 47.9628 49.01C48.3225 49.0927 48.4731 49.2868 48.568 49.6122C48.9909 51.0622 49.4214 52.5099 49.8542 53.9568C50.6001 56.4504 51.3483 58.9433 52.1001 61.435C52.1655 61.6518 52.1741 61.8255 51.9982 62.0061C49.1688 64.9122 46.3433 67.8222 43.5217 70.736C43.3032 70.9616 43.0993 71.0536 42.7695 70.9689C40.1886 70.3057 37.6011 69.6695 35.0178 69.0159C31.9686 68.2443 28.9212 67.4655 25.8739 66.6862C22.6831 65.8703 19.4945 65.0458 16.303 64.2332C13.6327 63.5533 10.9592 62.8867 8.28782 62.2113C7.24576 61.9478 6.20286 61.6866 5.16776 61.3969C5.01462 61.354 4.83152 61.1828 4.78204 61.0305C3.87753 58.2473 2.98865 55.4588 2.10252 52.6695C1.72648 51.4858 1.35991 50.2989 1.00509 49.1085C0.979106 49.0213 1.05737 48.8676 1.13196 48.7888C2.05369 47.8155 3.48705 46.2782 4.41107 45.3072C7.6776 41.8743 10.7358 38.8597 14 35.4246C15.7935 33.3449 17.1075 31.9919 18.8549 30.1451C18.976 30.0171 19.1713 29.7639 19.3018 29.5915Z" fill="white"/>
<path d="M36.5219 46.0528C41.0861 41.4 45.9469 36.3896 50.5131 31.7387C52.189 30.0318 53.8656 28.3255 55.5478 26.625C55.7448 26.4258 55.8131 26.2426 55.7441 25.9487C55.4756 24.8059 55.2435 23.6542 54.9934 22.5068C54.5427 20.4393 54.0911 18.3719 53.6352 16.3056C53.3948 15.2158 53.1453 14.1281 52.898 13.0399C52.8353 12.764 52.7105 12.5589 52.4084 12.4765C50.8423 12.0492 49.2802 11.6066 47.716 11.1723C43.7608 10.074 39.8048 8.97904 35.85 7.87949C33.1842 7.13834 30.5198 6.39252 27.8552 5.64715C25.9283 5.10813 24.0031 4.56272 22.0753 4.02685C19.7511 3.3808 17.4251 2.74186 15.0999 2.09979C13.9097 1.77115 12.7215 1.43484 11.5267 1.12451C11.3965 1.0907 11.1797 1.15936 11.0868 1.26041C10.5081 1.88964 9.95465 2.54278 9.39052 3.18588C7.84247 4.95062 6.2938 6.7148 4.74432 8.47823C3.76719 9.59029 2.78617 10.6988 1.81211 11.8137C1.66716 11.9796 1.49115 12.1201 1.58438 12.4174C2.21332 14.4229 2.82344 16.4345 3.43965 18.4442C4.17178 20.8319 4.90915 23.218 5.62993 25.6092C5.72892 25.9377 5.89275 26.1063 6.22319 26.1914C9.6236 27.0666 13.0205 27.956 16.4184 28.8413C17.3563 29.0857 18.2944 29.3294 19.3018 29.5915C19.1713 29.7639 18.976 30.0171 18.8549 30.1451C17.1075 31.9919 15.7935 33.3449 14 35.4246C10.7358 38.8597 7.6776 41.8743 4.41107 45.3072C3.48705 46.2782 2.05369 47.8155 1.13196 48.7888C1.05737 48.8676 0.979106 49.0213 1.00509 49.1085C1.35991 50.2989 1.72648 51.4858 2.10252 52.6695C2.98865 55.4588 3.87753 58.2473 4.78204 61.0305C4.83152 61.1828 5.01462 61.354 5.16776 61.3969C6.20286 61.6866 7.24576 61.9478 8.28782 62.2113C10.9592 62.8867 13.6327 63.5533 16.303 64.2332C19.4945 65.0458 22.6831 65.8703 25.8739 66.6862C28.9212 67.4655 31.9686 68.2443 35.0178 69.0159C37.6011 69.6695 40.1886 70.3057 42.7695 70.9689C43.0993 71.0536 43.3032 70.9616 43.5217 70.736C46.3433 67.8222 49.1688 64.9122 51.9982 62.0061C52.1741 61.8255 52.1655 61.6518 52.1001 61.435C51.3483 58.9433 50.6001 56.4504 49.8542 53.9568C49.4214 52.5099 48.9909 51.0622 48.568 49.6122C48.4731 49.2868 48.3225 49.0927 47.9628 49.01C46.9168 48.7693 45.8838 48.471 44.8427 48.2073C42.1954 47.5367 39.5464 46.8732 36.8988 46.2039C36.7849 46.1751 36.6783 46.1164 36.5219 46.0528ZM36.5219 46.0528C36.4275 46.1489 36.6447 45.9029 36.5219 46.0528ZM17.6278 16.3685L29.5677 19.4663M13.424 52.282L52.2376 61.8236M40 46.9859L11 40.5L14 52M42.6338 22.8563L54.9934 25.9487M15.5 33.5L40 9M43 23L41 9M22.9522 42.8012L42.8272 22.9065M5 62L14 51M11 1L18 16M5.73954 26.1914L17.7167 16.1915" stroke="#2B3138" stroke-width="2" stroke-miterlimit="10"/>
</svg>
